# xmcd
#
# Track frame offsets:
#  150
#  13729
#  27308
#  40141
#  51932
#  65570
#  79043
#  93073
#  106499
#  118385
#  130614
#  144242
#  155879
#  168049
#  178715
#  191371
#  207294
#  218789
#  230154
#  243366
#  255666
#
# Disc length: 3615 seconds
#
# Revision: 1
# Processed by: cddbd v1.5.1PL2 Copyright (c) Steve Scherf et al.
# Submitted via: Collectorz.com_Music_Collector 6.10
#
DISCID=240e1d15
DTITLE=Fletcher Henderson - Wrappin' It Up [CD4)
DYEAR=2005
DGENRE=Pop Classic Band
TTITLE0=Wild Party
TTITLE1=Rug Cutter's Swing
TTITLE2=Hotter Than 'ell
TTITLE3=Liza (All the Clouds'll Roll Away)
TTITLE4=Christopher Columbus
TTITLE5=Big Chief de Sota
TTITLE6=Blue Lou
TTITLE7=Stealin' Apples
TTITLE8=I'm a Fool for Loving You
TTITLE9=Moonrise on Lowlands
TTITLE10=I'll Always Be in Love with You
TTITLE11=Jangled Nerves
TTITLE12=Grand Terrace Rhythm
TTITLE13=Riffin'
TTITLE14=Mary Had a Little Lamb
TTITLE15=Shoe Shine Boy
TTITLE16=Sing, Sing, Sing
TTITLE17=Until Today
TTITLE18=Knock, Knock Who's There?
TTITLE19=Jim Town Blues
TTITLE20=You Can Depend on Me
EXTD=
EXTT0=
EXTT1=
EXTT2=
EXTT3=
EXTT4=
EXTT5=
EXTT6=
EXTT7=
EXTT8=
EXTT9=
EXTT10=
EXTT11=
EXTT12=
EXTT13=
EXTT14=
EXTT15=
EXTT16=
EXTT17=
EXTT18=
EXTT19=
EXTT20=
PLAYORDER=
